<svg id="svg" version="1.1" xmlns="http://www.w3.org/2000/svg" xmlns:xlink="http://www.w3.org/1999/xlink" width="400" height="266.6666666666667" viewBox="0, 0, 400,266.6666666666667"><g id="svgg"><path id="path0" d="M77.933 88.978 L 0.000 89.068 0.000 133.294 L 0.000 177.521 100.000 177.659 C 155.000 177.735,245.000 177.735,300.000 177.659 L 400.000 177.521 400.000 133.294 L 400.000 89.067 344.311 89.067 C 313.682 89.067,258.752 89.027,222.244 88.978 C 185.737 88.928,120.797 88.929,77.933 88.978 M179.048 95.933 C 179.593 97.657,180.165 99.397,180.318 99.800 L 180.598 100.533 184.550 100.533 C 186.723 100.533,188.571 100.645,188.656 100.782 C 188.740 100.919,187.363 102.249,185.594 103.738 C 183.295 105.674,182.417 106.572,182.513 106.889 C 182.587 107.134,182.962 108.473,183.345 109.867 C 183.729 111.260,184.206 112.910,184.405 113.533 C 184.902 115.087,184.709 115.008,181.276 112.247 C 179.621 110.916,178.124 109.766,177.949 109.691 C 177.665 109.569,176.628 110.285,172.456 113.487 C 170.716 114.822,170.703 114.701,172.119 110.388 C 173.599 105.875,173.843 106.693,170.133 103.730 C 166.220 100.603,166.198 100.683,170.979 100.593 L 174.892 100.519 175.612 98.593 C 176.722 95.623,177.281 94.056,177.466 93.400 C 177.772 92.320,178.045 92.757,179.048 95.933 M221.715 95.933 C 222.260 97.657,222.831 99.397,222.985 99.800 L 223.265 100.533 227.217 100.533 C 229.390 100.533,231.238 100.645,231.322 100.782 C 231.407 100.919,230.029 102.249,228.261 103.738 C 225.962 105.674,225.084 106.572,225.180 106.889 C 225.254 107.134,225.628 108.473,226.012 109.867 C 226.395 111.260,226.872 112.910,227.072 113.533 C 227.569 115.087,227.376 115.008,223.943 112.247 C 220.136 109.186,220.600 109.279,218.225 111.104 C 217.106 111.963,215.663 113.072,215.018 113.567 C 213.381 114.824,213.366 114.629,214.777 110.384 C 216.272 105.888,216.512 106.695,212.800 103.730 C 208.888 100.604,208.867 100.683,213.627 100.593 L 217.521 100.520 218.251 98.593 C 219.341 95.718,219.937 94.070,220.130 93.400 C 220.440 92.322,220.711 92.755,221.715 95.933 M141.845 125.133 C 142.331 126.637,142.921 128.434,143.158 129.127 L 143.587 130.387 147.724 130.460 L 151.860 130.533 148.597 133.280 C 146.802 134.791,145.333 136.103,145.333 136.195 C 145.333 136.287,145.568 137.151,145.856 138.114 C 148.048 145.473,148.214 145.153,143.986 141.733 C 140.398 138.830,140.685 138.933,139.315 140.070 C 134.754 143.856,133.027 144.740,134.118 142.730 C 135.047 141.018,136.353 135.987,135.950 135.667 C 135.719 135.484,134.173 134.253,132.514 132.933 L 129.498 130.533 133.623 130.460 L 137.748 130.387 138.324 128.860 C 138.641 128.020,139.284 126.223,139.753 124.867 C 140.808 121.817,140.771 121.812,141.845 125.133 M260.380 125.003 C 260.809 126.431,261.386 128.227,261.663 128.993 L 262.167 130.387 266.338 130.460 L 270.509 130.533 267.256 133.200 C 264.467 135.485,264.016 135.962,264.098 136.533 C 264.174 137.068,265.003 140.137,266.061 143.800 C 266.296 144.614,265.809 144.326,262.553 141.722 C 260.729 140.264,259.214 139.240,259.002 139.321 C 258.799 139.399,257.335 140.484,255.751 141.732 C 252.883 143.989,252.038 144.442,252.390 143.533 C 252.490 143.277,253.058 141.627,253.654 139.867 C 254.249 138.107,254.786 136.535,254.848 136.374 C 254.909 136.213,254.083 135.382,253.013 134.528 C 251.943 133.674,250.412 132.426,249.612 131.755 L 248.157 130.533 252.259 130.400 L 256.361 130.267 257.652 126.667 C 258.362 124.687,258.997 122.917,259.063 122.733 C 259.329 121.996,259.635 122.524,260.380 125.003 M179.054 155.133 C 179.601 156.857,180.182 158.657,180.345 159.133 L 180.640 160.000 184.720 160.000 C 189.478 160.000,189.384 159.888,186.584 162.214 C 185.383 163.212,183.940 164.420,183.377 164.900 L 182.353 165.772 183.025 168.020 C 185.119 175.024,185.287 174.743,181.039 171.333 C 177.317 168.345,177.931 168.476,175.763 170.209 C 173.029 172.395,171.189 173.678,171.026 173.515 C 170.944 173.433,171.430 171.737,172.105 169.745 C 173.645 165.207,173.866 165.913,169.927 162.800 L 166.552 160.133 170.720 160.060 L 174.888 159.987 175.672 157.793 C 176.103 156.587,176.742 154.790,177.092 153.800 C 177.913 151.478,177.886 151.460,179.054 155.133 M223.337 154.667 C 223.735 155.913,224.302 157.620,224.597 158.460 L 225.133 159.987 229.285 160.060 L 233.436 160.133 230.205 162.800 C 226.433 165.913,226.658 165.182,228.024 169.886 C 229.240 174.073,229.229 174.266,227.830 173.171 C 227.289 172.747,226.236 171.932,225.490 171.361 C 224.744 170.789,223.739 169.979,223.257 169.561 C 222.107 168.561,222.399 168.447,218.776 171.305 C 215.519 173.875,215.010 174.116,215.505 172.857 C 215.662 172.459,216.012 171.413,216.283 170.533 C 216.554 169.653,217.021 168.225,217.321 167.359 C 217.621 166.493,217.867 165.753,217.867 165.716 C 217.867 165.679,216.504 164.560,214.837 163.230 C 210.456 159.732,210.429 160.000,215.158 160.000 C 219.726 160.000,219.328 160.203,220.254 157.409 C 220.761 155.877,221.745 153.012,222.012 152.289 C 222.240 151.669,222.567 152.256,223.337 154.667 " stroke="none" fill="#04248c" fill-rule="evenodd"></path><path id="path1" d="M155.733 44.400 L 155.733 88.800 200.000 88.800 L 244.267 88.800 244.267 44.400 L 244.267 0.000 200.000 0.000 L 155.733 0.000 155.733 44.400 M155.733 222.267 L 155.733 266.667 200.000 266.667 L 244.267 266.667 244.267 222.267 L 244.267 177.867 200.000 177.867 L 155.733 177.867 155.733 222.267 " stroke="none" fill="#db1414" fill-rule="evenodd"></path><path id="path2" d="M0.000 44.400 L 0.000 88.801 77.667 88.734 L 155.333 88.667 155.401 44.333 L 155.468 0.000 77.734 0.000 L 0.000 0.000 0.000 44.400 M244.599 44.333 L 244.667 88.667 322.333 88.734 L 400.000 88.801 400.000 44.400 L 400.000 0.000 322.266 0.000 L 244.532 0.000 244.599 44.333 M176.553 96.867 C 175.937 98.663,175.338 100.313,175.222 100.533 C 175.054 100.850,174.219 100.961,171.219 101.067 L 167.427 101.200 170.514 103.695 C 172.211 105.068,173.600 106.347,173.600 106.537 C 173.600 106.728,173.122 108.305,172.537 110.042 C 171.004 114.599,170.749 114.500,175.184 111.072 C 177.887 108.983,177.655 109.000,179.791 110.733 C 183.409 113.669,184.267 114.303,184.267 114.041 C 184.267 113.976,184.037 113.160,183.756 112.228 C 183.267 110.608,182.133 106.478,182.133 106.318 C 182.133 106.276,183.508 105.107,185.188 103.721 L 188.243 101.200 184.357 101.067 L 180.470 100.933 179.861 99.200 C 179.526 98.247,178.984 96.597,178.656 95.533 C 177.881 93.024,177.867 93.034,176.553 96.867 M219.040 97.267 L 217.733 100.933 213.914 101.067 L 210.094 101.200 213.180 103.695 C 214.878 105.068,216.267 106.347,216.267 106.537 C 216.267 106.728,215.788 108.305,215.204 110.042 C 213.670 114.599,213.416 114.500,217.850 111.072 C 220.554 108.983,220.322 109.000,222.458 110.733 C 226.076 113.669,226.933 114.303,226.933 114.041 C 226.933 113.976,226.703 113.160,226.422 112.228 C 225.934 110.608,224.800 106.478,224.800 106.318 C 224.800 106.276,226.175 105.107,227.855 103.721 L 230.910 101.200 227.023 101.067 L 223.137 100.933 222.528 99.200 C 222.193 98.247,221.650 96.597,221.322 95.533 C 220.544 93.011,220.561 92.998,219.040 97.267 M257.962 126.713 L 256.605 130.533 252.714 130.667 L 248.823 130.800 251.812 133.185 C 253.455 134.496,254.900 135.652,255.021 135.752 C 255.143 135.853,254.692 137.590,254.020 139.611 C 252.631 143.790,252.636 143.880,254.193 142.618 C 256.798 140.509,258.935 138.933,259.194 138.933 C 259.345 138.933,260.819 140.003,262.468 141.309 C 265.941 144.062,265.881 144.084,264.832 140.426 C 263.427 135.526,263.240 136.232,266.715 133.325 L 269.733 130.800 265.960 130.726 C 261.557 130.640,261.953 130.911,260.814 127.200 C 259.304 122.284,259.522 122.322,257.962 126.713 M139.325 126.867 L 138.000 130.533 134.148 130.667 L 130.295 130.800 131.117 131.467 C 132.151 132.305,133.345 133.258,135.133 134.672 C 136.782 135.975,136.759 135.807,135.703 138.976 C 135.247 140.346,134.712 141.978,134.515 142.603 L 134.157 143.739 136.479 141.958 C 137.755 140.979,139.139 139.898,139.554 139.556 C 140.640 138.659,140.695 138.682,144.126 141.489 C 145.850 142.899,147.183 143.825,147.101 143.555 C 147.020 143.287,146.833 142.587,146.687 142.000 C 146.540 141.413,146.122 139.876,145.758 138.583 C 144.944 135.691,144.764 136.079,148.261 133.200 L 151.176 130.800 147.266 130.667 L 143.357 130.533 142.636 128.400 C 142.240 127.227,141.716 125.577,141.472 124.733 C 140.871 122.654,140.834 122.690,139.325 126.867 M220.901 156.349 L 219.549 160.133 215.680 160.267 L 211.810 160.400 214.961 162.933 C 216.693 164.327,218.114 165.587,218.118 165.733 C 218.122 165.880,217.587 167.560,216.931 169.467 C 216.274 171.373,215.736 173.027,215.735 173.141 C 215.733 173.333,216.773 172.560,220.407 169.667 C 222.203 168.237,222.075 168.220,224.496 170.201 C 225.616 171.118,227.000 172.217,227.571 172.643 L 228.609 173.418 228.424 172.435 C 228.323 171.895,227.959 170.586,227.616 169.526 C 227.273 168.467,226.913 167.115,226.816 166.521 L 226.638 165.443 229.652 162.921 L 232.667 160.400 228.755 160.267 C 226.603 160.193,224.795 160.073,224.736 160.000 C 224.678 159.927,224.438 159.207,224.202 158.400 C 223.243 155.110,222.517 152.828,222.389 152.700 C 222.314 152.625,221.645 154.267,220.901 156.349 M177.079 154.467 C 175.007 160.834,175.623 160.234,171.062 160.325 L 167.335 160.400 169.830 162.400 C 171.202 163.500,172.635 164.654,173.015 164.965 L 173.706 165.530 173.007 167.765 C 172.623 168.994,172.071 170.747,171.780 171.660 L 171.253 173.320 172.226 172.593 C 172.761 172.194,174.156 171.117,175.326 170.200 C 177.949 168.144,177.412 168.064,181.133 171.070 C 182.857 172.462,184.267 173.485,184.267 173.343 C 184.267 173.201,184.086 172.552,183.864 171.900 C 183.467 170.729,182.457 167.035,182.252 166.000 C 182.171 165.588,182.852 164.889,185.240 162.933 L 188.334 160.400 184.367 160.267 L 180.400 160.133 179.204 156.467 C 177.831 152.258,177.805 152.234,177.079 154.467 M-0.000 222.266 L 0.000 266.667 77.734 266.667 L 155.468 266.667 155.401 222.333 L 155.333 178.000 77.667 177.933 L -0.000 177.866 -0.000 222.266 M244.711 178.044 C 244.613 178.142,244.533 198.122,244.533 222.444 L 244.533 266.667 322.267 266.667 L 400.000 266.667 400.000 222.267 L 400.000 177.867 322.444 177.867 C 279.789 177.867,244.809 177.947,244.711 178.044 " stroke="none" fill="#fbfbfb" fill-rule="evenodd"></path><path id="path3" d="M155.467 44.320 C 155.393 68.769,155.424 88.683,155.534 88.573 C 155.645 88.462,155.705 68.458,155.667 44.119 L 155.600 -0.133 155.467 44.320 M244.331 44.184 C 244.296 68.559,244.357 88.557,244.467 88.625 C 244.647 88.737,244.647 58.346,244.464 15.867 C 244.427 7.067,244.367 19.810,244.331 44.184 M175.108 100.388 C 174.976 100.733,174.322 100.800,171.075 100.800 C 167.489 100.800,166.651 100.963,167.508 101.492 C 167.699 101.610,167.743 101.565,167.625 101.375 C 167.485 101.147,168.410 101.067,171.152 101.067 C 174.694 101.067,176.052 100.763,175.404 100.115 C 175.328 100.039,175.195 100.162,175.108 100.388 M180.500 100.874 C 180.615 100.988,182.439 101.048,184.554 101.007 L 188.400 100.932 184.346 100.799 C 182.116 100.726,180.386 100.760,180.500 100.874 M213.800 100.733 C 210.187 100.808,209.350 100.983,210.175 101.492 C 210.365 101.610,210.410 101.565,210.292 101.375 C 210.152 101.147,211.081 101.067,213.835 101.067 C 216.036 101.067,217.636 100.957,217.733 100.800 C 217.824 100.653,217.861 100.560,217.816 100.592 C 217.770 100.625,215.963 100.688,213.800 100.733 M223.167 100.874 C 223.281 100.988,225.106 101.048,227.221 101.007 L 231.067 100.932 227.013 100.799 C 224.783 100.726,223.052 100.760,223.167 100.874 M172.296 110.163 C 172.132 110.634,172.044 111.066,172.101 111.124 C 172.158 111.181,172.339 110.842,172.504 110.370 C 172.668 109.899,172.756 109.467,172.699 109.410 C 172.642 109.353,172.461 109.692,172.296 110.163 M214.963 110.163 C 214.799 110.634,214.711 111.066,214.768 111.124 C 214.825 111.181,215.006 110.842,215.170 110.370 C 215.335 109.899,215.422 109.467,215.365 109.410 C 215.308 109.353,215.127 109.692,214.963 110.163 M256.533 130.089 C 256.533 130.310,255.354 130.417,252.467 130.459 L 248.400 130.518 252.379 130.600 C 256.070 130.676,257.256 130.500,256.716 129.960 C 256.615 129.860,256.533 129.918,256.533 130.089 M134.067 130.333 C 130.160 130.414,129.705 130.532,130.600 131.234 C 131.023 131.566,131.032 131.556,130.701 131.133 C 130.356 130.694,130.552 130.667,134.085 130.667 C 136.297 130.667,137.903 130.557,138.000 130.400 C 138.091 130.253,138.128 130.160,138.082 130.192 C 138.037 130.225,136.230 130.288,134.067 130.333 M143.433 130.474 C 143.548 130.588,145.432 130.648,147.621 130.607 L 151.600 130.532 147.413 130.399 C 145.109 130.326,143.319 130.360,143.433 130.474 M265.835 130.600 L 269.669 130.682 269.168 131.274 L 268.667 131.867 269.267 131.359 C 270.298 130.486,269.975 130.398,265.933 130.459 L 262.000 130.517 265.835 130.600 M264.908 143.400 C 265.463 144.055,265.867 144.177,265.867 143.689 C 265.867 143.518,265.786 143.458,265.688 143.556 C 265.590 143.654,265.260 143.524,264.955 143.267 C 264.400 142.800,264.400 142.800,264.908 143.400 M175.111 159.581 C 174.983 159.914,174.234 159.999,170.922 160.060 L 166.889 160.133 167.643 160.800 C 168.281 161.364,168.319 161.375,167.890 160.867 L 167.384 160.267 171.126 160.267 C 174.694 160.267,176.053 159.964,175.404 159.315 C 175.328 159.239,175.196 159.359,175.111 159.581 M215.467 160.000 L 211.333 160.155 215.384 160.211 C 217.860 160.245,219.499 160.163,219.600 160.000 C 219.691 159.853,219.728 159.759,219.682 159.789 C 219.637 159.820,217.740 159.915,215.467 160.000 M182.467 160.198 C 183.603 160.248,185.463 160.248,186.600 160.198 C 187.737 160.148,186.807 160.107,184.533 160.107 C 182.260 160.107,181.330 160.148,182.467 160.198 M228.773 160.200 L 232.612 160.282 231.993 160.941 C 231.652 161.303,231.432 161.600,231.504 161.600 C 231.575 161.600,231.978 161.240,232.400 160.800 L 233.166 160.000 229.050 160.059 L 224.933 160.117 228.773 160.200 M227.841 173.000 C 228.450 173.719,228.808 173.770,228.779 173.133 C 228.765 172.829,228.709 172.788,228.618 173.016 C 228.510 173.286,228.347 173.256,227.906 172.883 L 227.333 172.400 227.841 173.000 M155.467 222.347 L 155.600 266.800 155.667 222.547 C 155.705 198.209,155.645 178.205,155.534 178.094 C 155.424 177.984,155.393 197.897,155.467 222.347 M244.390 178.200 C 244.320 178.383,244.294 198.393,244.332 222.667 L 244.400 266.800 244.533 222.333 C 244.607 197.877,244.633 177.867,244.592 177.867 C 244.550 177.867,244.460 178.017,244.390 178.200 " stroke="none" fill="#a9b9da" fill-rule="evenodd"></path><path id="path4" d="M77.733 88.800 L -0.133 88.935 77.800 89.001 C 129.622 89.045,155.733 88.977,155.733 88.800 C 155.733 88.653,155.703 88.563,155.667 88.599 C 155.630 88.636,120.560 88.726,77.733 88.800 M244.267 88.867 C 244.267 88.977,279.337 89.037,322.200 89.001 C 365.063 88.965,387.473 88.905,372.000 88.868 C 296.727 88.687,244.267 88.686,244.267 88.867 M219.230 95.763 C 219.065 96.234,218.978 96.666,219.035 96.724 C 219.092 96.781,219.273 96.442,219.437 95.970 C 219.601 95.499,219.689 95.067,219.632 95.010 C 219.575 94.953,219.394 95.292,219.230 95.763 M217.873 99.582 L 217.559 100.533 213.728 100.533 C 209.931 100.533,209.139 100.715,209.852 101.423 C 210.091 101.660,210.123 101.622,209.987 101.267 C 209.823 100.835,210.106 100.800,213.718 100.800 L 217.627 100.800 218.029 99.838 C 218.250 99.309,218.376 98.821,218.309 98.753 C 218.242 98.686,218.045 99.059,217.873 99.582 M175.073 99.980 C 174.906 100.506,174.710 100.533,171.064 100.533 C 167.265 100.533,166.472 100.715,167.186 101.423 C 167.424 101.660,167.456 101.622,167.321 101.267 C 167.156 100.835,167.438 100.800,171.029 100.800 C 174.695 100.800,174.931 100.769,175.212 100.244 C 175.376 99.938,175.451 99.629,175.379 99.557 C 175.307 99.485,175.170 99.676,175.073 99.980 M180.375 100.327 C 180.426 100.580,181.446 100.686,184.355 100.740 C 188.559 100.820,188.567 100.823,187.668 101.849 C 187.173 102.414,187.217 102.399,187.925 101.759 C 189.174 100.630,188.907 100.533,184.540 100.533 C 182.100 100.533,180.526 100.428,180.442 100.260 C 180.368 100.110,180.338 100.140,180.375 100.327 M223.042 100.327 C 223.093 100.580,224.113 100.686,227.022 100.740 C 231.225 100.820,231.234 100.823,230.334 101.849 C 229.839 102.414,229.884 102.399,230.591 101.759 C 231.840 100.630,231.573 100.533,227.206 100.533 C 224.767 100.533,223.192 100.428,223.109 100.260 C 223.034 100.110,223.004 100.140,223.042 100.327 M172.563 108.830 C 172.399 109.301,172.311 109.733,172.368 109.790 C 172.425 109.847,172.606 109.508,172.770 109.037 C 172.935 108.566,173.022 108.134,172.965 108.076 C 172.908 108.019,172.727 108.358,172.563 108.830 M215.230 108.830 C 215.065 109.301,214.978 109.733,215.035 109.790 C 215.092 109.847,215.273 109.508,215.437 109.037 C 215.601 108.566,215.689 108.134,215.632 108.076 C 215.575 108.019,215.394 108.358,215.230 108.830 M182.971 109.067 C 182.971 109.287,183.074 109.707,183.200 110.000 C 183.344 110.336,183.429 110.385,183.429 110.133 C 183.429 109.913,183.326 109.493,183.200 109.200 C 183.056 108.864,182.971 108.815,182.971 109.067 M225.637 109.067 C 225.637 109.287,225.741 109.707,225.867 110.000 C 226.011 110.336,226.096 110.385,226.096 110.133 C 226.096 109.913,225.993 109.493,225.867 109.200 C 225.722 108.864,225.637 108.815,225.637 109.067 M176.533 110.174 L 175.600 110.999 176.582 110.300 C 177.746 109.471,177.797 109.465,178.512 110.067 C 179.066 110.533,179.066 110.533,178.559 109.933 C 177.898 109.153,177.654 109.182,176.533 110.174 M219.699 109.776 C 219.365 110.180,219.384 110.187,219.918 109.855 C 220.432 109.535,220.579 109.554,221.118 110.012 L 221.733 110.533 221.225 109.933 C 220.621 109.219,220.196 109.176,219.699 109.776 M183.575 114.067 C 183.854 114.397,184.233 114.667,184.416 114.667 C 184.633 114.667,184.693 114.457,184.586 114.067 C 184.445 113.554,184.407 113.537,184.321 113.953 C 184.223 114.425,184.201 114.425,183.643 113.953 L 183.067 113.467 183.575 114.067 M226.241 114.067 C 226.521 114.397,226.899 114.667,227.083 114.667 C 227.300 114.667,227.359 114.457,227.252 114.067 C 227.112 113.554,227.074 113.537,226.987 113.953 C 226.890 114.425,226.868 114.425,226.310 113.953 L 225.733 113.467 226.241 114.067 M139.230 126.163 C 139.065 126.634,138.978 127.066,139.035 127.124 C 139.092 127.181,139.273 126.842,139.437 126.370 C 139.601 125.899,139.689 125.467,139.632 125.410 C 139.575 125.353,139.394 125.692,139.230 126.163 M150.783 131.267 L 150.000 132.133 150.867 131.350 C 151.343 130.919,151.733 130.529,151.733 130.483 C 151.733 130.277,151.513 130.459,150.783 131.267 M248.267 130.483 C 248.267 130.529,248.657 130.919,249.133 131.350 L 250.000 132.133 249.217 131.267 C 248.487 130.459,248.267 130.277,248.267 130.483 M269.488 131.142 L 268.976 131.867 269.688 131.220 C 270.436 130.541,270.528 130.395,270.200 130.408 C 270.090 130.413,269.770 130.743,269.488 131.142 M264.304 138.133 C 264.304 138.353,264.407 138.773,264.533 139.067 C 264.678 139.403,264.763 139.452,264.763 139.200 C 264.763 138.980,264.659 138.560,264.533 138.267 C 264.389 137.930,264.304 137.881,264.304 138.133 M253.896 138.963 C 253.732 139.434,253.644 139.866,253.701 139.924 C 253.758 139.981,253.939 139.642,254.104 139.170 C 254.268 138.699,254.356 138.267,254.299 138.210 C 254.242 138.153,254.061 138.492,253.896 138.963 M139.966 139.376 C 139.632 139.780,139.651 139.787,140.185 139.455 C 140.698 139.135,140.846 139.154,141.385 139.612 L 142.000 140.133 141.492 139.533 C 140.888 138.819,140.462 138.776,139.966 139.376 M138.133 140.833 C 137.204 141.647,137.204 141.648,138.059 141.080 C 138.531 140.766,138.988 140.394,139.074 140.254 C 139.332 139.838,139.118 139.969,138.133 140.833 M252.564 142.960 C 252.193 144.023,252.192 144.000,252.634 144.000 C 252.836 144.000,253.160 143.790,253.354 143.533 C 253.655 143.136,253.652 143.116,253.334 143.400 C 252.734 143.935,252.526 143.787,252.814 143.030 C 252.961 142.643,253.032 142.277,252.972 142.216 C 252.911 142.156,252.728 142.490,252.564 142.960 M134.044 142.844 C 133.801 143.087,133.819 144.000,134.067 144.000 C 134.177 144.000,134.267 143.700,134.267 143.333 C 134.267 142.967,134.257 142.667,134.244 142.667 C 134.232 142.667,134.142 142.747,134.044 142.844 M265.688 143.399 C 265.713 143.876,265.823 144.266,265.933 144.266 C 266.188 144.267,266.160 143.752,265.870 143.067 C 265.688 142.639,265.652 142.705,265.688 143.399 M147.219 143.549 C 147.207 143.855,147.078 143.963,146.867 143.843 C 146.611 143.699,146.606 143.734,146.843 143.991 C 147.297 144.483,147.698 144.224,147.450 143.600 C 147.261 143.127,147.235 143.121,147.219 143.549 M224.299 158.133 C 224.294 158.353,224.456 158.893,224.657 159.333 C 225.129 160.363,225.136 159.884,224.667 158.667 C 224.469 158.153,224.304 157.913,224.299 158.133 M211.278 160.176 C 211.507 160.548,214.133 162.770,214.133 162.591 C 214.133 162.521,213.448 161.880,212.611 161.166 C 211.773 160.451,211.174 160.006,211.278 160.176 M183.333 164.706 C 182.530 165.424,182.470 165.524,183.090 165.109 C 183.828 164.616,184.755 163.718,184.499 163.743 C 184.445 163.749,183.920 164.182,183.333 164.706 M182.971 168.267 C 182.971 168.487,183.074 168.907,183.200 169.200 C 183.344 169.536,183.429 169.585,183.429 169.333 C 183.429 169.113,183.326 168.693,183.200 168.400 C 183.056 168.064,182.971 168.015,182.971 168.267 M178.133 168.879 C 178.133 168.947,178.698 169.465,179.388 170.030 C 180.077 170.595,180.556 170.919,180.451 170.748 C 180.226 170.386,178.133 168.697,178.133 168.879 M224.629 170.606 C 224.840 170.947,226.400 172.102,226.400 171.916 C 226.400 171.851,225.959 171.461,225.421 171.050 C 224.883 170.639,224.526 170.439,224.629 170.606 M228.304 171.467 C 228.304 171.687,228.407 172.107,228.533 172.400 C 228.678 172.736,228.763 172.785,228.763 172.533 C 228.763 172.313,228.659 171.893,228.533 171.600 C 228.389 171.264,228.304 171.215,228.304 171.467 M184.285 173.166 C 184.269 173.597,184.203 173.617,183.800 173.314 C 183.363 172.985,183.361 172.993,183.774 173.446 C 184.334 174.060,184.797 173.907,184.516 173.200 C 184.320 172.706,184.303 172.703,184.285 173.166 M28.000 177.799 C 103.273 177.980,155.733 177.981,155.733 177.800 C 155.733 177.690,120.663 177.629,77.800 177.665 C 34.937 177.701,12.527 177.761,28.000 177.799 M244.267 177.800 C 244.267 177.981,296.727 177.980,372.000 177.799 C 387.473 177.761,365.063 177.701,322.200 177.665 C 279.337 177.629,244.267 177.690,244.267 177.800 " stroke="none" fill="#7e91c4" fill-rule="evenodd"></path></g></svg>